<?xml version="1.0" encoding="UTF-8"?>
<svg version="1.1" xmlns="http://www.w3.org/2000/svg" width="64" height="64">
<path d="M0 0 C19.14 0 38.28 0 58 0 C55.98508645 4.0298271 53.61900098 6.73653995 50.51171875 9.89453125 C49.97150589 10.44614426 49.43129303 10.99775726 48.87471008 11.56608582 C47.73351091 12.72612721 46.58941536 13.88332548 45.44262695 15.0378418 C43.68978246 16.81019214 41.95939376 18.60270989 40.22851562 20.39648438 C39.11590811 21.52214429 38.00201806 22.64653829 36.88671875 23.76953125 C36.3719548 24.3089888 35.85719086 24.84844635 35.326828 25.4042511 C33.10807882 27.59602488 31.69211467 28.94866669 28.51806641 29.18408203 C24.98490288 27.52266618 22.51243345 25.04452877 19.82421875 22.28515625 C18.9691851 21.42874794 18.9691851 21.42874794 18.09687805 20.55503845 C16.89795617 19.35008889 15.70388443 18.14029642 14.5144043 16.92602539 C12.68703953 15.0620303 10.84405393 13.21465665 8.99804688 11.36914062 C7.8349871 10.19625418 6.67284491 9.02245696 5.51171875 7.84765625 C4.95868576 7.29239761 4.40565277 6.73713898 3.83586121 6.16505432 C0 2.23215832 0 2.23215832 0 0 Z " fill="#FFFFFF" transform="translate(3,9)"/>
<path d="M0 0 C0.54124512 0.43094971 1.08249023 0.86189941 1.64013672 1.3059082 C2.71158936 2.13868286 2.71158936 2.13868286 3.8046875 2.98828125 C4.51093262 3.54298096 5.21717773 4.09768066 5.94482422 4.66918945 C8.03062724 6.25916071 8.03062724 6.25916071 11.125 6.1875 C13.71834751 5.11633472 15.10194757 4.21286781 17.1796875 2.42578125 C18.11039063 1.62527344 19.04109375 0.82476562 20 0 C23.17469938 3.11692909 26.33835392 6.24483546 29.5 9.375 C30.40621094 10.26445313 31.31242187 11.15390625 32.24609375 12.0703125 C33.10332031 12.92109375 33.96054687 13.771875 34.84375 14.6484375 C36.03774414 15.82672119 36.03774414 15.82672119 37.25585938 17.02880859 C39 19 39 19 39 21 C19.86 21 0.72 21 -19 21 C-17.19522505 17.3904501 -15.88074534 15.64371929 -13.0859375 12.890625 C-12.32539063 12.13652344 -11.56484375 11.38242187 -10.78125 10.60546875 C-9.9871875 9.82816406 -9.193125 9.05085938 -8.375 8.25 C-7.57320312 7.45722656 -6.77140625 6.66445313 -5.9453125 5.84765625 C-3.96797154 3.89385507 -1.98611091 1.94487897 0 0 Z " fill="#FFFFFF" transform="translate(22,34)"/>
<path d="M0 0 C0 13.2 0 26.4 0 40 C-7.875 33.25 -7.875 33.25 -10.52734375 30.5703125 C-11.09130859 30.003125 -11.65527344 29.4359375 -12.23632812 28.8515625 C-12.79771484 28.28179687 -13.35910156 27.71203125 -13.9375 27.125 C-14.82018555 26.23554687 -14.82018555 26.23554687 -15.72070312 25.328125 C-17.14947674 23.88773534 -18.57508132 22.4442033 -20 21 C-18.5450489 17.65215892 -16.70194509 15.45622627 -14.12109375 12.890625 C-13.36505859 12.13652344 -12.60902344 11.38242187 -11.83007812 10.60546875 C-11.04052734 9.82816406 -10.25097656 9.05085938 -9.4375 8.25 C-8.64408203 7.45722656 -7.85066406 6.66445313 -7.03320312 5.84765625 C-1.14025522 0 -1.14025522 0 0 0 Z " fill="#FFFFFF" transform="translate(64,12)"/>
<path d="M0 0 C7.875 6.75 7.875 6.75 10.52734375 9.4296875 C11.09130859 9.996875 11.65527344 10.5640625 12.23632812 11.1484375 C12.79771484 11.71820313 13.35910156 12.28796875 13.9375 12.875 C14.52595703 13.46796875 15.11441406 14.0609375 15.72070312 14.671875 C17.14947674 16.11226466 18.57508132 17.5557967 20 19 C18.5450489 22.34784108 16.70194509 24.54377373 14.12109375 27.109375 C13.36505859 27.86347656 12.60902344 28.61757813 11.83007812 29.39453125 C10.64575195 30.56048828 10.64575195 30.56048828 9.4375 31.75 C8.64408203 32.54277344 7.85066406 33.33554687 7.03320312 34.15234375 C1.14025522 40 1.14025522 40 0 40 C0 26.8 0 13.6 0 0 Z " fill="#FFFFFF" transform="translate(0,12)"/>
</svg>
