<?xml version="1.0" encoding="UTF-8"?>
<svg version="1.1" xmlns="http://www.w3.org/2000/svg" width="64" height="64">
<path d="M0 0 C6.48623298 0.76308623 6.48623298 0.76308623 9.2109375 2.01953125 C12.99832701 3.35095249 16.45278992 3.32980977 20.4375 3.3125 C21.54448242 3.33666992 21.54448242 3.33666992 22.67382812 3.36132812 C27.58655361 3.36569499 30.62737011 2.41560352 35 0 C37.875 0.3125 37.875 0.3125 40 1 C40.04898438 1.68707031 40.09796875 2.37414062 40.1484375 3.08203125 C40.22320312 3.98308594 40.29796875 4.88414063 40.375 5.8125 C40.47941406 7.15248047 40.47941406 7.15248047 40.5859375 8.51953125 C40.86645036 11.24398499 40.86645036 11.24398499 43 14 C43.66660924 19.80570138 43.8190629 25.20436211 41.375 30.5625 C37.97988705 34.04695803 35.11016603 36.8165073 30.125 37.25 C29.42375 37.1675 28.7225 37.085 28 37 C28.33 37.66 28.66 38.32 29 39 C29.2639592 42.19683914 29.44382184 45.38684013 29.60546875 48.58984375 C29.76355994 52.42126627 29.76355994 52.42126627 31 56 C23.41 56 15.82 56 8 56 C8.99 55.505 8.99 55.505 10 55 C10 52.69 10 50.38 10 48 C8.1746875 48.185625 8.1746875 48.185625 6.3125 48.375 C4.09765625 48.3828125 4.09765625 48.3828125 2 48 C-0.75 45.25 -0.75 45.25 -3 42 C-3.763125 41.278125 -4.52625 40.55625 -5.3125 39.8125 C-7 38 -7 38 -7 35 C-2.95938883 35.2819031 -1.38731543 35.60300168 1.5 38.5625 C3.81768277 41.33246372 3.81768277 41.33246372 7.3125 41.3125 C8.6428125 41.1578125 8.6428125 41.1578125 10 41 C10.33 39.68 10.66 38.36 11 37 C9.948125 36.9175 8.89625 36.835 7.8125 36.75 C3.54827398 35.91113587 1.92883004 35.17289921 -1 32 C-3.89306455 26.75995135 -4.56213676 21.90243602 -4 16 C-3.02059602 13.65794699 -2.01965427 11.32481174 -1 9 C-0.48240029 6.00942392 -0.19907233 3.02727227 0 0 Z " fill="#FFFFFF" transform="translate(14,4)"/>
</svg>
