<?xml version="1.0" encoding="UTF-8"?>
<svg version="1.1" xmlns="http://www.w3.org/2000/svg" width="64" height="64">
<path d="M0 0 C3.44392798 2.4828318 4.67621685 4.91467203 5.6875 8.9375 C6.04116691 13.42444405 5.9706848 17.87781439 5.875 22.375 C5.85469727 24.18774414 5.85469727 24.18774414 5.83398438 26.03710938 C5.79880267 29.00409945 5.74500131 31.97085855 5.6875 34.9375 C1.7275 34.9375 -2.2325 34.9375 -6.3125 34.9375 C-6.8075 23.5525 -6.8075 23.5525 -7.3125 11.9375 C-8.6325 11.2775 -9.9525 10.6175 -11.3125 9.9375 C-14.43035113 10.58394661 -14.43035113 10.58394661 -15.3125 12.9375 C-15.46472973 14.60315749 -15.56167215 16.27406496 -15.62890625 17.9453125 C-15.67080078 18.93144531 -15.71269531 19.91757812 -15.75585938 20.93359375 C-15.79517578 21.96613281 -15.83449219 22.99867187 -15.875 24.0625 C-15.91818359 25.10277344 -15.96136719 26.14304687 -16.00585938 27.21484375 C-16.11212768 29.7888983 -16.21283527 32.36318131 -16.3125 34.9375 C-20.2725 34.9375 -24.2325 34.9375 -28.3125 34.9375 C-28.3125 23.3875 -28.3125 11.8375 -28.3125 -0.0625 C-24.6825 -0.0625 -21.0525 -0.0625 -17.3125 -0.0625 C-16.9825 0.5975 -16.6525 1.2575 -16.3125 1.9375 C-15.6525 1.4425 -14.9925 0.9475 -14.3125 0.4375 C-9.31464506 -2.06142747 -5.1414422 -1.64914184 0 0 Z " fill="#FFFFFF" transform="translate(52.3125,23.0625)"/>
<path d="M0 0 C3.63 0 7.26 0 11 0 C11 11.55 11 23.1 11 35 C7.37 35 3.74 35 0 35 C0 23.45 0 11.9 0 0 Z " fill="#FFFFFF" transform="translate(7,23)"/>
<path d="M0 0 C1.875 1.0625 1.875 1.0625 3 3 C3.36528977 6.4093712 3.6140629 8.88023824 1.9375 11.9375 C-1.11976176 13.6140629 -3.5906288 13.36528977 -7 13 C-8.9375 11.875 -8.9375 11.875 -10 10 C-10.54068562 6.36968224 -10.46379841 4.67785921 -8.375 1.625 C-5.32214079 -0.46379841 -3.63031776 -0.54068562 0 0 Z " fill="#FFFFFF" transform="translate(16,6)"/>
</svg>
